<?xml version="1.0" encoding="utf-8" standalone="no"?><!DOCTYPE svg PUBLIC "-//W3C//DTD SVG 20010904//EN" "http://www.w3.org/TR/2001/REC-SVG-20010904/DTD/svg10.dtd"><svg xmlns="http://www.w3.org/2000/svg" width="674" height="391" xmlns:xlink="http://www.w3.org/1999/xlink"><source><![CDATA[Client->Server: Sends keyword
Server->Database: Searches database
Database->Server: Responds with results
Note left of Server:Processes data
Server->>Client: Sends results
Note left of Client: Render ingredients]]></source><desc></desc><defs><marker viewBox="0 0 5 5" markerWidth="5" markerHeight="5" orient="auto" refX="5" refY="2.5" id="markerArrowBlock"><path d="M 0 0 L 5 2.5 L 0 5 z"></path></marker><marker viewBox="0 0 9.6 16" markerWidth="4" markerHeight="16" orient="auto" refX="9.6" refY="8" id="markerArrowOpen"><path d="M 9.6,8 1.92,16 0,13.7 5.76,8 0,2.286 1.92,0 9.6,8 z"></path></marker></defs><g class="title"></g><g class="actor"><path d="M170.203125,20C187.5,22.9 200.2,17.1 242.3,20.0C240.8,38.2 243.7,32.9 242.3,56.8C191.6,53.9 230.7,59.7 170.2,56.8C171.7,33.8 168.7,48.0 170.2,20.0" stroke="#000000" fill="#ffffff" style="stroke-width: 2;"></path><text x="180.203125" y="43.609375" style="font-size: 16px; font-family: danielbd;"><tspan x="180.203125">Client</tspan></text></g><g class="actor"><path d="M170.203125,334.5C193.2,337.4 219.6,331.6 242.3,334.5C243.7,356.0 240.8,340.4 242.3,371.3C200.1,368.4 205.8,374.2 170.2,371.3C168.7,362.5 171.7,352.9 170.2,334.5" stroke="#000000" fill="#ffffff" style="stroke-width: 2;"></path><text x="180.203125" y="358.109375" style="font-size: 16px; font-family: danielbd;"><tspan x="180.203125">Client</tspan></text></g><path d="M206.2,56.8C217.3,118.3 195.1,130.5 206.2,334.5" stroke="#000000" fill="none" style="stroke-width: 2;"></path><g class="actor"><path d="M344.0546875,20C387.1,23.1 399.1,16.9 422.5,20.0C421.0,38.4 423.9,28.8 422.5,56.8C380.9,53.7 381.2,59.9 344.1,56.8C345.5,48.0 342.6,28.8 344.1,20.0" stroke="#000000" fill="#ffffff" style="stroke-width: 2;"></path><text x="354.8671875" y="43.2109375" style="font-size: 16px; font-family: danielbd;"><tspan x="354.0546875">Server</tspan></text></g><g class="actor"><path d="M344.0546875,334.5C409.9,331.4 403.7,337.6 422.5,334.5C421.0,340.4 423.9,351.2 422.5,371.3C362.9,368.2 356.6,374.4 344.1,371.3C342.6,343.3 345.5,357.9 344.1,334.5" stroke="#000000" fill="#ffffff" style="stroke-width: 2;"></path><text x="354.8671875" y="357.7109375" style="font-size: 16px; font-family: danielbd;"><tspan x="354.0546875">Server</tspan></text></g><path d="M383.3,56.8C394.4,123.5 372.2,153.0 383.3,334.5" stroke="#000000" fill="none" style="stroke-width: 2;"></path><g class="actor"><path d="M546.0390625,20C611.8,24.0 583.3,16.0 644.9,20.0C646.3,36.8 643.4,32.3 644.9,56.8C578.0,52.9 626.1,60.8 546.0,56.8C544.6,46.8 547.5,44.8 546.0,20.0" stroke="#000000" fill="#ffffff" style="stroke-width: 2;"></path><text x="556.8515625" y="43.609375" style="font-size: 16px; font-family: danielbd;"><tspan x="556.0390625">Database</tspan></text></g><g class="actor"><path d="M546.0390625,334.5C621.1,338.5 595.5,330.5 644.9,334.5C646.3,343.3 643.4,355.4 644.9,371.3C621.1,375.3 569.8,367.4 546.0,371.3C547.5,358.8 544.6,352.8 546.0,334.5" stroke="#000000" fill="#ffffff" style="stroke-width: 2;"></path><text x="556.8515625" y="358.109375" style="font-size: 16px; font-family: danielbd;"><tspan x="556.0390625">Database</tspan></text></g><path d="M595.5,56.8C606.6,133.1 584.3,290.1 595.5,334.5" stroke="#000000" fill="none" style="stroke-width: 2;"></path><g class="signal"><text x="230.1796875" y="84.2109375" style="font-size: 16px; font-family: danielbd;"><tspan x="229.3671875">Sends keyword</tspan></text><path d="M206.2,99.2C248.7,106.3 234.6,92.2 383.3,99.2" stroke="#000000" fill="none" style="stroke-width: 2; marker-end: url(&quot;#markerArrowBlock&quot;);"></path></g><g class="signal"><text x="412.4765625" y="129.8359375" style="font-size: 16px; font-family: danielbd;"><tspan x="411.6640625">Searches database</tspan></text><path d="M383.3,136.8C503.1,145.3 455.7,128.4 595.5,136.8" stroke="#000000" fill="none" style="stroke-width: 2; marker-end: url(&quot;#markerArrowBlock&quot;);"></path></g><g class="signal"><text x="393.265625" y="165.4453125" style="font-size: 16px; font-family: danielbd;"><tspan x="393.265625">Responds with results</tspan></text><path d="M595.5,178.5C417.2,170.0 434.2,186.9 383.3,178.5" stroke="#000000" fill="none" style="stroke-width: 2; marker-end: url(&quot;#markerArrowBlock&quot;);"></path></g><g class="note"><path d="M226.234375,198.453125C259.1,203.9 281.7,193.0 363.3,198.5C364.3,216.6 362.2,202.7 363.3,225.3C275.3,219.8 286.0,230.7 226.2,225.3C227.3,212.4 225.2,219.4 226.2,198.5" stroke="#000000" fill="#ffffff" style="stroke-width: 2;"></path><text x="231.234375" y="217.0625" style="font-size: 16px; font-family: danielbd;"><tspan x="231.234375">Processes data</tspan></text></g><g class="signal"><text x="237.96875" y="255.46875" style="font-size: 16px; font-family: danielbd;"><tspan x="237.15625">Sends results</tspan></text><path d="M383.3,262.1C340.8,255.0 249.1,269.2 206.2,262.1" stroke="#000000" fill="none" style="stroke-width: 2; marker-end: url(&quot;#markerArrowOpen&quot;);"></path></g><g class="note"><path d="M20,282.078125C93.4,275.4 143.5,288.7 186.2,282.1C187.5,287.3 184.9,295.2 186.2,314.5C107.0,307.9 105.5,321.1 20.0,314.5C21.3,295.3 18.7,309.3 20.0,282.1" stroke="#000000" fill="#ffffff" style="stroke-width: 2;"></path><text x="25" y="300.6875" style="font-size: 16px; font-family: danielbd;"><tspan x="25">Render ingredients</tspan></text></g></svg>